<svg xmlns="http://www.w3.org/2000/svg" viewBox="0 0 160 100">
  <g fill="none" fill-rule="evenodd">
    <path fill="#22a4e6" d="M38.5 0h83c13.4 0 18.3 1.4 23.2 4Q152 8 156 15.3c2.6 5 4 9.8 4 23.2v23c0 13.4-1.4 18.3-4 23.2A27 27 0 0 1 144.7 96c-5 2.6-9.8 4-23.2 4h-83c-13.4 0-18.3-1.4-23.2-4A27 27 0 0 1 4 84.7c-2.6-5-4-9.8-4-23.2v-23C0 25 1.4 20.2 4 15.3Q8 8 15.3 4c5-2.6 9.8-4 23.2-4"/>
    <path fill="#FFFFFF" fill-rule="nonzero" d="M42.7 69.6c5.3 0 10.2-3 12.1-7.4h.1v5q.2 2.3 2.2 2.4 2-.2 2.2-2.3V44.7c0-7.3-5.1-11.8-13.2-11.8-6.2 0-11.1 2.8-13 7q-.6 1.4-.6 2.4.1 1.9 2 2 1.3 0 2-1.2 2.5-6.3 9.5-6.2c5.5 0 8.7 3 8.7 8.2v3l-11 .7q-12.6 1-12.8 10.4c0 6.2 4.8 10.4 11.8 10.4m.9-4c-4.8 0-8.1-2.5-8.1-6.5q0-5.9 8.7-6.7l10.5-.7v4c0 5.6-4.9 10-11.1 10m26.2 16.2c5.4 0 8-2.5 11-10.7l13.4-35q.3-.7.2-1.2-.1-2-2.2-2.1-1.6 0-2.2 1.6l-10.8 30-10.8-30q-.6-1.6-2.2-1.6-2.1.1-2.3 2l.3 1.3 12.6 33-1 2.7c-1.5 4.6-3.5 6-6 6h-1.9q-1.7 0-1.8 1.7.1 2.3 3.7 2.3m41.9-12.3c5.6 0 9.9-2.8 11.7-7.2h.1v4.9q.1 2.1 2.2 2.3 2-.2 2.1-2.3v-32q-.2-2.2-2.2-2.4-2.2.2-2.3 2.4v19.2c0 6.7-4.2 11-10.4 11q-9-.1-9.2-9.7V35.3q-.2-2.2-2.3-2.4-2.1.2-2.3 2.4v21.3c0 8 4.8 13 12.6 13"/>
  </g>
</svg>
