<svg xmlns="http://www.w3.org/2000/svg" width="338" height="317" viewBox="0 0 338 317">
  <g fill="none" fill-rule="evenodd">
    <path fill="#FFFFFF"
      d="M316.6 216s-.5-3-.8-3l-54.5 5.2a9 9 0 0 0-8 8.3l-1.6 21.4-42.2 3-2.8-19.4a9 9 0 0 0-8.8-7.6h-57.6a9 9 0 0 0-8.8 7.6l-2.9 19.5-42.2-3-1.5-21.5a9 9 0 0 0-8-8.3L22.3 213c-.3 0-.5 3-.8 3v11.7l46.2 7.5 1.5 21.7a9 9 0 0 0 8.2 8.2l58.2 4.2h.6a9 9 0 0 0 8.8-7.6l3-20h42.2l3 20a9 9 0 0 0 9.4 7.6l58.1-4.2a9 9 0 0 0 8.3-8.2l1.5-21.7 46.2-7.5z" />
    <path fill="#478CBF"
      d="M21.5 127v89h.5l54.6 5.3c2.9.3 5.1 2.6 5.3 5.5l1.7 24 47.6 3.5 3.3-22.3c.4-2.9 2.9-5 5.8-5h57.6c2.9 0 5.4 2.1 5.8 5l3.3 22.3 47.6-3.4 1.7-24.1a6 6 0 0 1 5.3-5.5l54.5-5.2h.5V127h.3q10.8-13.8 20.3-29.3A228 228 0 0 0 307 58.2a296 296 0 0 0-30 17.4c-4.7-4.7-10-8.6-15.3-12.6-5.2-4.2-11-7.2-16.5-10.8q2.3-18.2 2.8-36.8c-14.3-7.2-29.5-12-44.8-15.4a319 319 0 0 0-16.7 32.4Q178 31 169.2 31h-.2q-8.8 0-17.5 1.4A317 317 0 0 0 135 0a192 192 0 0 0-45 15.4q.3 18.6 2.8 36.8c-5.6 3.6-11.4 6.6-16.5 10.8C71 67 65.8 70.9 61 75.6a292 292 0 0 0-30-17.4c-11 12-21.5 25-30 39.5A320 320 0 0 0 21.3 127z" />
    <path fill="#478CBF"
      d="m267.7 232.5-1.7 24.2a6 6 0 0 1-5.5 5.4l-58.1 4.2h-.4a6 6 0 0 1-5.9-5l-3.3-22.6h-47.4l-3.4 22.6c-.4 3-3.1 5.2-6.2 5L77.7 262c-3-.2-5.3-2.5-5.5-5.4l-1.7-24.2-49-4.8V240c0 51.9 65.8 76.8 147.5 77h.2c81.7-.2 147.4-25.1 147.4-77l.1-12.2z" />
    <path fill="#FFFFFF" d="M124.6 163.1a32.9 32.9 0 1 1-65.8 0 32.9 32.9 0 0 1 65.8 0" />
    <path fill="#414042" d="M116.7 165a21.8 21.8 0 1 1-43.6 0 21.8 21.8 0 0 1 43.6 0" />
    <path fill="#FFFFFF"
      d="M169.1 199c-5.8 0-10.6-4.3-10.6-9.6V159c0-5.3 4.8-9.6 10.6-9.6 5.9 0 10.6 4.3 10.6 9.6v30.3c0 5.3-4.7 9.6-10.6 9.6m44.4-35.8a32.9 32.9 0 1 0 65.8 0 32.9 32.9 0 0 0-65.8 0" />
    <path fill="#414042" d="M221.5 165a21.8 21.8 0 1 0 43.7 0 21.8 21.8 0 0 0-43.7 0" />
  </g>
</svg>
