<svg viewBox="0 0 294 294" xmlns="http://www.w3.org/2000/svg">
  <path fill="#000" d="M287 145.4 145.2 6.5 6.3 148.2l138.9 139 141.8-141.8"/>
  <path fill="#006b05" d="M272.8 145.4h8.5L145.2 281.5v-8.5l127.6-127.6"/>
  <path fill="#007d17" d="M12 148.2h8.5l124.7 124.8v8.5L12 148.2"/>
  <path fill="#6f9" d="M145.2 20.6V12.2L12 148.2h8.5L145.2 20.6"/>
  <path fill="#4f0" d="M145.2 12.2v8.4l127.6 124.8h8.5L145.2 12.2"/>
  <path fill="#093" d="M145.2 273 272.8 145.4 145.2 20.6 20.5 148.2 145.2 273"/>
  <path fill="#000" d="M171.7 49 180.2 57.5 121.6 117V57.5h5.7l8.5-8.5V26.4l-8.5-8.6H32.8l-8.5 8.6v22.6l8.5 8.6h6.6V250.3l10.4 8.5h29.3L282.2 49V26.4l-8.5-8.6h-92.6l-9.4 8.6V49"/>
  <path fill="#fff" d="M35.6 51.8 30 46.2V29.2l5.7-5.7 88.8-.1 5.6 5.8-5.6 2.7-2.9-2.7-85.9 14.1v8.5"/>
  <path fill="#fff" d="M52.6 253.1 46 247.4V51.8l6.6-5.6v206.9"/>
  <path fill="#fff" d="M194.4 51.8 200.1 46.2v11.4L105.6 153.9l10.4-22.7L194.4 51.8"/>
  <path fill="#7f7f7f" d="M54.6 43.4 52.6 46.2 46 51.8H35.6V40.5l19 2.9"/>
  <path fill="#7f7f7f" d="M116 51.8v79.4l-10.5 22.6V46.1h16.1l2.9-2.8-2.9-14.1h8.5v17l-5.6 5.6H116"/>
  <path fill="#fff" d="M183 51.8 177.4 46.2V29.2l6.5-5.7h86.1l6.6 5.7-9.5 8.5-84.1 5.6v8.5"/>
  <path fill="#7f7f7f" d="M276.6 46.2 77.2 253.1H52.6v-8.5h18L270 40.5l-2.9-11.3h9.5v17"/>
  <path fill="#7f7f7f" d="M202 43.4 200 46.2l-5.6 5.6H183V40.5l19 2.9"/>
  <path fill="#ccc" d="M105.6 153.8V46.1h16.1l2.9-2.8V32l-2.9-2.9H38.5l-2.9 2.9v11.4l2.9 2.8h14.1v198.5l3.7 2.8h16.2l198.4-206.9V32.3L268.1 29H185.9l-2.9 2.8v11.5l2.9 2.9h14.2v11.4l-94.5 96.2"/>
  <path fill="#000" d="M157.1 153.9 163.7 148.3h17l4.8 5.6-5.7 17-6.5 5.7h-17l-4.8-5.7 5.7-17"/>
  <path fill="#000" d="M162.8 247.5 179.9 196.5h-5.7l5.7-17h25.4l5.7 5.7h3.8l5.6-5.7h19l5.7 5.7h1.7l5.7-5.7h22.7l7.6 11.4-12.4 40.3h5.6l-5.5 16.4h-34l13.3-39.7h-8.5l-7.9 23.2h5.7l-5.4 16.4h-34l13.2-39.7h-8.5l-7.9 23.3h5.7l-5.4 16.4h-34"/>
  <path fill="#ccc" d="M272.6 185.1 277 191.4l-14 44.8h5.6l-1.9 5.6h-22.6l13.2-39.7h-19.9l-11.3 34.1h5.6l-1.9 5.6h-22.7l13.3-39.7h-19.9l-11.3 34.1h5.7l-1.9 5.6h-22.7l17-50.7h-5.7l1.9-5.6h20.8l5.7 5.7h5.6l5.7-5.7H238l5.7 5.7h5.7l5.7-5.7h17.2"/>
  <path fill="#000" d="M177 179.4 159.6 231.1h5.9l-5.6 16.4h-34l17-51h-5.7l5.7-17H177"/>
  <path fill="#ccc" d="M156.2 241.8 158 236.2h-5.7l17-51h-23.6l-2 5.7h6.7l-17 51h22.7"/>
  <path fill="#ccc" d="M175 168.1 178.9 156.8 177 153.9h-11.4l-3.7 2.9-3.8 11.3 1.9 2.9h11.4l3.7-2.9"/>
</svg>
